<?xml version="1.0" encoding="UTF-8"?>
<svg id="Ebene_1" data-name="Ebene 1" xmlns="http://www.w3.org/2000/svg" viewBox="0 0 1162.2 397.77">
  <defs>
    <style>
      .cls-1 {
        fill: #231f20;
      }
    </style>
  </defs>
  <path class="cls-1" d="M612.73,233.48l-23.24,19.56-23.24-19.56c-1.73-1.46-4.26-1.46-5.98,0l-20.46,17.22c2.65,1.81,5.72,3.28,9.2,4.4l14.25-12,17.47,14.7h8.74c3.34,0,6.46-.18,9.4-.51l16.86-14.19,6.08,5.12c.3-.27.6-.54.88-.83,1.87-1.87,3.47-4.04,4.84-6.51l-8.81-7.41c-1.73-1.46-4.26-1.46-5.98,0Z"/>
  <path class="cls-1" d="M612.73,202.4l-23.24,19.56-23.24-19.56c-1.73-1.46-4.26-1.46-5.98,0l-23.24,19.56-11.65-9.81v2.27c0,3.72.21,7.19.64,10.42l8.02,6.75c1.73,1.45,4.25,1.46,5.99,0l23.24-19.56,23.24,19.56c1.73,1.45,4.25,1.46,5.98,0l23.24-19.56,16.55,13.92c.53-3.51.81-7.33.82-11.46l-14.38-12.1c-1.73-1.46-4.26-1.46-5.98,0Z"/>
  <path class="cls-1" d="M622.45,169.66c-1.73-1.46-4.26-1.46-5.98,0l-23.24,19.56-23.24-19.56c-1.73-1.46-4.26-1.46-5.98,0l-23.24,19.55-14.84-12.49c-.35,3.04-.54,6.29-.54,9.77v1.93l12.39,10.43c1.73,1.46,4.25,1.45,5.99,0l23.24-19.56,23.24,19.56c1.73,1.46,4.25,1.46,5.98,0l23.24-19.56,13.64,11.48v-4.28c0-2.88-.13-5.6-.37-8.18l-10.28-8.65Z"/>
  <path class="cls-1" d="M545.81,166.31l23.24-19.56,23.24,19.56c1.73,1.45,4.25,1.46,5.98,0l19.86-16.71c-2.71-1.77-5.84-3.18-9.38-4.26l-13.48,11.34-16.42-13.82h-9.84c-3.71-.04-7.17.13-10.39.52l-15.81,13.3-5.75-4.84c-.44.38-.86.78-1.27,1.19-1.75,1.75-3.27,3.76-4.58,6.04l8.61,7.25c1.73,1.45,4.25,1.46,5.99,0Z"/>
  <path class="cls-1" d="M67.14,184.01h-24.68c-7.96,0-13.34-1.46-16.12-4.38-2.79-2.92-4.18-8.29-4.18-16.12s1.36-13.05,4.08-15.88c2.72-2.82,8.06-4.23,16.02-4.23h23.69c5.97,0,10.45.71,13.44,2.14,2.99,1.43,5.01,4.1,6.07,8.01.4,2.66,1.26,4.68,2.59,6.07,1.33,1.39,3.32,2.09,5.97,2.09,2.92,0,5.11-.75,6.57-2.24,1.46-1.49,1.99-3.67,1.59-6.52-1.59-8.89-5.39-15.49-11.4-19.81-6.01-4.31-14.28-6.47-24.83-6.47h-23.69c-12.54,0-21.81,3.02-27.82,9.06-6.01,6.04-9.01,15.3-9.01,27.77s3.04,21.88,9.11,28.02c6.07,6.14,15.38,9.21,27.92,9.21h24.68c8.36,0,14.13,1.58,17.32,4.73,3.19,3.15,4.78,9.01,4.78,17.57s-1.54,14.18-4.63,17.27c-3.08,3.09-8.91,4.63-17.47,4.63h-28.66c-6.77,0-11.79-.85-15.08-2.54-3.28-1.69-5.42-4.83-6.42-9.41-.46-2.79-1.34-4.84-2.64-6.17-1.29-1.33-3.33-1.99-6.12-1.99s-4.91.73-6.37,2.19-2.06,3.65-1.79,6.57c1.59,9.56,5.56,16.62,11.89,21.2,6.34,4.58,15.18,6.87,26.53,6.87h28.66c13.14,0,22.89-3.13,29.26-9.41,6.37-6.27,9.55-16.01,9.55-29.21s-3.2-23.09-9.6-29.46c-6.4-6.37-16.14-9.56-29.21-9.56Z"/>
  <path class="cls-1" d="M207.48,143.4c5.57,0,8.36-2.79,8.36-8.36s-2.79-8.36-8.36-8.36h-71.46c-5.57,0-8.36,2.79-8.36,8.36v118.24c0,5.57,2.79,8.36,8.36,8.36h71.46c5.57,0,8.36-2.79,8.36-8.36s-2.79-8.36-8.36-8.36h-63.1v-43h39.61c5.57,0,8.36-2.79,8.36-8.36s-2.79-8.36-8.36-8.36h-39.61v-41.8h63.1Z"/>
  <path class="cls-1" d="M333.68,126.68c-5.57,0-8.36,2.79-8.36,8.36v94.34l-75.84-97.72c-2.72-3.32-5.51-4.98-8.36-4.98-5.57,0-8.36,2.79-8.36,8.36v118.24c0,5.57,2.79,8.36,8.36,8.36s8.36-2.79,8.36-8.36v-94.34l75.84,97.73c2.59,3.32,5.37,4.98,8.36,4.98,5.57,0,8.36-2.79,8.36-8.36v-118.24c0-5.57-2.79-8.36-8.36-8.36Z"/>
  <path class="cls-1" d="M430.92,184.01h-24.68c-7.96,0-13.34-1.46-16.12-4.38-2.79-2.92-4.18-8.29-4.18-16.12s1.36-13.05,4.08-15.88c2.72-2.82,8.06-4.23,16.02-4.23h23.69c5.97,0,10.45.71,13.44,2.14,2.99,1.43,5.01,4.1,6.07,8.01.4,2.66,1.26,4.68,2.59,6.07,1.33,1.39,3.32,2.09,5.97,2.09,2.92,0,5.11-.75,6.57-2.24,1.46-1.49,1.99-3.67,1.59-6.52-1.59-8.89-5.39-15.49-11.4-19.81-6.01-4.31-14.28-6.47-24.83-6.47h-23.69c-12.54,0-21.81,3.02-27.82,9.06-6.01,6.04-9.01,15.3-9.01,27.77s3.04,21.88,9.11,28.02c6.07,6.14,15.38,9.21,27.92,9.21h24.68c8.36,0,14.13,1.58,17.32,4.73,3.19,3.15,4.78,9.01,4.78,17.57s-1.54,14.18-4.63,17.27c-3.08,3.09-8.91,4.63-17.47,4.63h-28.66c-6.77,0-11.79-.85-15.08-2.54-3.28-1.69-5.42-4.83-6.42-9.41-.46-2.79-1.34-4.84-2.64-6.17-1.29-1.33-3.33-1.99-6.12-1.99s-4.91.73-6.37,2.19-2.06,3.65-1.79,6.57c1.59,9.56,5.56,16.62,11.89,21.2,6.34,4.58,15.18,6.87,26.53,6.87h28.66c13.14,0,22.89-3.13,29.26-9.41,6.37-6.27,9.55-16.01,9.55-29.21s-3.2-23.09-9.6-29.46c-6.4-6.37-16.14-9.56-29.21-9.56Z"/>
  <path class="cls-1" d="M1003.16,126.68c-2.79,0-4.88.7-6.27,2.09-1.39,1.39-2.09,3.48-2.09,6.27v82.01c0,7.1-.85,12.67-2.54,16.72-1.69,4.05-4.56,6.92-8.61,8.61-4.05,1.69-9.62,2.54-16.72,2.54h-23.89c-7.1,0-12.68-.85-16.72-2.54-4.05-1.69-6.92-4.56-8.61-8.61-1.69-4.05-2.54-9.62-2.54-16.72v-82.01c0-2.79-.7-4.88-2.09-6.27-1.39-1.39-3.48-2.09-6.27-2.09s-4.88.7-6.27,2.09c-1.39,1.39-2.09,3.48-2.09,6.27v82.01c0,15.19,3.63,26.42,10.9,33.69s18.5,10.9,33.69,10.9h23.89c15.26,0,26.51-3.63,33.74-10.9,7.23-7.27,10.85-18.5,10.85-33.69v-82.01c0-2.79-.7-4.88-2.09-6.27-1.39-1.39-3.48-2.09-6.27-2.09Z"/>
  <path class="cls-1" d="M746.77,253.28c0,5.57,2.79,8.36,8.36,8.36s8.36-2.79,8.36-8.36v-42.48c-5.87.98-11.46,3.29-16.72,6.48v36Z"/>
  <path class="cls-1" d="M801.71,126.68h-46.58c-4.62,0-8.36,3.74-8.36,8.36v45.8c4.54,2.42,9.97,4.56,16.72,6.43v-43.87h38.22c7.56,0,12.94,1.61,16.12,4.83,3.19,3.22,4.78,8.58,4.78,16.07v5.97c0,7.56-1.59,12.94-4.78,16.12s-8.59,7.41-16.14,7.86c-12.62.76-34.96.61-41.96,0-23.9-2.11-45.79-14.5-59.62-34.11-2.84-4.04-6.45-7.81-10.06-12.02-29.68-34.59-72.54-59.33-112.59-65.01-5.63-.8-10.98-1.65-15.96-3.01-22.93-6.27-45.62-16.45-58.72-36.81-1.59-2.48-5.38-10.48-5.38-10.48-2.66-5.19-3.75-11.15-2.49-16.84.8-3.62.08-7.61-2.51-10.96-3.09-4.01-8.44-5.86-13.35-4.64-8.41,2.1-12.33,11.14-8.77,18.5,1.42,2.93,3.78,5.09,6.55,6.29,5.46,2.38,9.78,6.79,12.46,12.11,6.13,12.2,5.37,11.05,6.11,12.72,9.41,21.25,9.03,45.34-.08,66.72-2.17,5.1-4.03,10.77-5.56,17.03-8.21,33.68-10.73,92.52,0,130.01,1.59,5.54,3.5,10.73,5.73,15.53,10.06,21.67,9.72,46.76.05,68.61l-5.99,13.31c-2.67,5.22-7.19,9.09-12.46,11.65-2.92,1.42-5.35,3.93-6.59,7.31-2.25,6.14.59,13.26,6.43,16.2,6.57,3.31,14.55.58,17.73-6.02,1.2-2.49,1.54-5.18,1.14-7.72-.97-6.14-.33-12.39,2.56-17.89,3.02-5.74,3.63-7.22,5.01-9.68,11.83-21.02,35.14-30.76,57.75-36.84,5.11-1.38,10.48-2.83,16.33-3.81,38.73-6.48,89.54-36.08,112.59-65.01,2.42-3.04,4.76-5.98,6.84-8.96,14.46-20.71,37.13-34.17,62.32-35.94l31.2-.43c-.07.73,31.79,55.18,31.79,55.18,1.39,2.19,3.08,3.55,5.08,4.08,1.99.53,4.08.1,6.27-1.29,4.64-2.92,5.71-6.7,3.19-11.35l-26.08-43.49c9.29-1.53,16.39-5.42,21.3-11.69,4.91-6.27,7.36-14.68,7.36-25.23v-5.97c0-12.14-3.23-21.45-9.7-27.92-6.47-6.47-15.78-9.7-27.92-9.7ZM650.1,217.32c0,20.01-4.57,34.59-13.7,43.72-9.13,9.13-23.7,13.7-43.72,13.7h-26.9c-20.01,0-34.59-4.57-43.72-13.7-9.13-9.13-13.7-23.59-13.7-43.39v-36.75c0-20.23,4.56-34.91,13.7-44.04,9.13-9.13,23.7-13.59,43.72-13.37h26.9c20.01,0,34.58,4.57,43.72,13.7,9.13,9.13,13.7,23.7,13.7,43.72v36.42Z"/>
  <path class="cls-1" d="M864.62,126.88c-2.85,0-4.96.66-6.32,1.99-1.36,1.33-2.04,3.45-2.04,6.37v118.04c0,2.85.68,4.96,2.04,6.32,1.36,1.36,3.47,2.04,6.32,2.04s5.04-.68,6.37-2.04c1.33-1.36,1.99-3.47,1.99-6.32v-118.04c0-2.92-.66-5.04-1.99-6.37-1.33-1.33-3.45-1.99-6.37-1.99Z"/>
  <path class="cls-1" d="M1155.44,126.68c-4.51,0-7.9,1.79-10.15,5.37l-45.39,68.27-45.38-68.27c-2.46-3.58-5.51-5.37-9.16-5.37-5.57,0-8.36,2.79-8.36,8.36v118.24c0,5.57,2.79,8.36,8.36,8.36s8.36-2.79,8.36-8.36v-92.41l36.83,54.19c2.45,3.58,5.18,5.37,8.16,5.37,4.31,0,7.7-1.79,10.15-5.37l36.63-53.9v92.11c0,5.57,2.79,8.36,8.36,8.36s8.36-2.79,8.36-8.36v-118.24c0-5.57-2.26-8.36-6.77-8.36Z"/>
</svg>