<?xml version="1.0" encoding="UTF-8"?>
<svg id="Ebene_1" data-name="Ebene 1" xmlns="http://www.w3.org/2000/svg" viewBox="0 0 716.82 824.36">
  <defs>
    <style>
      .cls-1 {
        fill: #231f20;
      }
    </style>
  </defs>
  <path class="cls-1" d="M298.44,419.46l-48.17,40.53-48.16-40.53c-3.58-3.02-8.82-3.02-12.4,0l-48.15,40.53-24.14-20.32v4.71c0,7.71.44,14.9,1.32,21.59l16.62,13.99c3.58,3.01,8.82,3.02,12.4,0l48.16-40.53,48.16,40.53c3.58,3.01,8.82,3.02,12.4,0l48.17-40.53,34.3,28.86c1.1-7.28,1.67-15.19,1.7-23.74l-29.79-25.07c-3.58-3.02-8.82-3.02-12.4,0Z"/>
  <path class="cls-1" d="M298.44,483.86l-48.17,40.53-48.16-40.53c-3.58-3.02-8.82-3.02-12.4,0l-42.41,35.69c5.5,3.76,11.85,6.8,19.07,9.12l29.54-24.86,36.2,30.46h18.1c6.91,0,13.39-.37,19.47-1.06l34.95-29.41,12.6,10.6c.62-.56,1.24-1.12,1.83-1.71,3.87-3.87,7.2-8.38,10.02-13.48l-18.26-15.36c-3.58-3.02-8.82-3.02-12.4,0Z"/>
  <path class="cls-1" d="M159.75,344.66l48.16-40.53,48.16,40.53c3.58,3.01,8.82,3.02,12.4,0l41.16-34.63c-5.62-3.66-12.1-6.6-19.43-8.82l-27.93,23.5-34.03-28.64h-20.38c-7.69-.08-14.87.28-21.54,1.07l-32.76,27.57-11.92-10.04c-.91.79-1.79,1.61-2.63,2.46-3.62,3.62-6.78,7.79-9.49,12.52l17.84,15.02c3.58,3.01,8.82,3.02,12.4,0Z"/>
  <path class="cls-1" d="M318.57,351.62c-3.58-3.02-8.82-3.02-12.4,0l-48.17,40.53-48.16-40.53c-3.58-3.02-8.82-3.02-12.4,0l-48.15,40.52-30.75-25.89c-.73,6.31-1.12,13.04-1.12,20.24v3.99l25.67,21.61c3.58,3.02,8.82,3.01,12.4,0l48.16-40.53,48.16,40.53c3.58,3.02,8.82,3.02,12.4,0l48.17-40.53,28.28,23.79v-8.87c0-5.96-.26-11.61-.77-16.96l-21.3-17.92Z"/>
  <path class="cls-1" d="M689.55,387.16c-5.74.02-11.05,1.81-15.43,4.86-10.56,7.36-22.8,11.13-35.67,11.42-14.07.32-29.51-.51-35.35-.86-49.53-4.38-94.91-30.06-123.55-70.7-5.89-8.36-13.36-16.19-20.84-24.91-61.51-71.69-150.33-122.96-233.34-134.72-11.66-1.65-22.76-3.42-33.08-6.24-47.52-13-96.14-33.05-121.7-76.29-3.14-5.31-11.66-21.73-11.66-21.73-5.51-10.75-7.78-23.1-5.17-34.89,1.66-7.5.17-15.77-5.2-22.72C42.16,2.08,31.07-1.77,20.9.78,3.47,5.13-4.66,23.87,2.73,39.11c2.94,6.07,7.84,10.55,13.57,13.05,11.32,4.94,20.28,14.07,25.82,25.1,12.7,25.28,11.63,22.91,13.16,26.37,19.49,44.04,18.72,93.97-.17,138.27-4.51,10.58-8.36,22.32-11.52,35.29-17.01,69.81-22.24,191.73,0,269.44,3.29,11.48,7.26,22.23,11.88,32.18,20.85,44.91,20.14,96.9.09,142.18l-12.41,27.58c-5.53,10.81-14.89,18.84-25.82,24.14-6.06,2.94-11.08,8.15-13.65,15.14-4.67,12.72,1.22,27.49,13.33,33.58,13.61,6.85,30.15,1.2,36.74-12.47,2.49-5.17,3.2-10.73,2.37-16-2-12.72-.69-25.69,5.31-37.08,6.26-11.9,7.53-14.96,10.39-20.05,24.51-43.56,72.83-63.74,119.69-76.35,10.6-2.85,21.72-5.87,33.85-7.9,80.27-13.42,185.57-74.77,233.34-134.72,5.01-6.29,9.86-12.38,14.18-18.57,29.96-42.91,76.94-70.82,129.15-74.49,0,0,30.24-1.47,40.44-.56,11.13.99,21.53,5.53,30.38,12.5,5.29,4.17,12.17,6.41,19.58,5.66,13.48-1.35,24.19-13.11,24.39-26.66.22-15.24-12.09-27.64-27.27-27.6ZM375.89,450.38c0,41.47-9.46,71.68-28.39,90.6-18.93,18.93-49.12,28.39-90.6,28.39h-55.75c-41.47,0-71.68-9.46-90.6-28.39-18.93-18.92-28.39-48.89-28.39-89.92v-76.15c0-41.93,9.46-72.35,28.39-91.28,18.92-18.92,49.12-28.16,90.6-27.7h55.75c41.47,0,71.67,9.47,90.6,28.39,18.92,18.93,28.39,49.12,28.39,90.6v75.47Z"/>
</svg>